/* XPM */
static char *Devastation[]={
"32 32 217 2",
"Qt c None",
".N c #2b0100",
"ay c #2c0100",
"ao c #2d0100",
"#g c #2e0100",
"#u c #2f0100",
"a7 c #300100",
".M c #310100",
"#D c #320100",
".8 c #340100",
"#t c #350100",
"#h c #370100",
"#f c #380100",
"#l c #390100",
"#Y c #3a0100",
".2 c #3c0100",
"a5 c #3d0100",
".L c #3f0100",
"at c #400100",
".7 c #410100",
".O c #430100",
"a6 c #440100",
"aj c #450100",
"ag c #4a0100",
"aR c #500100",
"av c #520100",
"#a c #550200",
"#S c #560200",
"#O c #590200",
"ax c #5b0200",
".P c #5c0200",
"aF c #5f0200",
"#J c #610200",
"ac c #650200",
"aM c #680200",
"aA c #6a0200",
"al c #6d0200",
"bb c #6e0200",
"a4 c #700200",
"#8 c #710200",
".K c #750200",
"aq c #760200",
"aP c #770200",
"aN c #790200",
"#U c #7a0200",
"aB c #7b0200",
"aD c #7d0200",
".Q c #820300",
"aX c #850300",
"ae c #870300",
"au c #8d0300",
"bm c #8e0300",
"#v c #8f0300",
"#3 c #910300",
"be c #930300",
"## c #940300",
"bs c #950300",
"#k c #960300",
".Y c #980300",
"aJ c #990300",
"#C c #9a0300",
"bo c #9b0300",
".1 c #9e0300",
"ar c #9f0300",
"a3 c #a10300",
"a1 c #a20300",
".9 c #a40300",
"#6 c #a60300",
"a9 c #a70300",
"aZ c #a90400",
"bf c #ab0400",
"#e c #ac0400",
"aS c #ad0400",
"a# c #ae0400",
"#Z c #b00400",
"b# c #b10400",
"bj c #b20400",
"#X c #b50400",
"aY c #b70400",
"#9 c #b80400",
"#L c #b90400",
"aQ c #ba0400",
"a0 c #bc0400",
".Z c #bd0400",
"aa c #be0400",
"aG c #c00400",
"aL c #c10400",
"#F c #c30400",
".6 c #c40400",
"#p c #c60400",
"#s c #c80400",
"#Q c #c90400",
"#b c #cc0400",
".A c #cd0400",
"aI c #cf0400",
"#m c #d10400",
"b. c #d20400",
"ad c #d50500",
"ak c #d90500",
".R c #db0500",
"#E c #dc0500",
".B c #dd0500",
".J c #de0500",
"#4 c #df0500",
"#j c #e00500",
"az c #e10500",
"#T c #e20500",
"ap c #e30500",
".t c #e40500",
".z c #e50500",
"#x c #e70500",
"aE c #e80500",
"#i c #ea0500",
"aK c #eb0500",
"ah c #ed0500",
"#7 c #ef0500",
"aT c #f00500",
".3 c #f10500",
"#R c #f30500",
"#. c #f50500",
"bk c #f60500",
"#y c #f70500",
"aw c #f90500",
"bi c #fb0500",
".0 c #fc0500",
"aC c #fd0500",
"an c #fe0600",
"a2 c #fe0903",
"bc c #fe0c06",
"bg c #fe0e09",
".a c #fe2722",
"bd c #fe342f",
".H c #fe4c48",
"#q c #fe534f",
".S c #fe5753",
"bh c #fe5a56",
"#A c #fe726e",
".E c #fe7b77",
"bv c #fe7e7b",
".f c #fe827f",
".T c #fe9693",
"#r c #fea2a0",
".o c #fea5a3",
".n c #fea6a4",
"a8 c #ff0802",
"#G c #ff0903",
"#I c #ff0a04",
"#0 c #ff0e08",
".C c #ff0f09",
"#P c #ff100a",
"ai c #ff120c",
"#w c #ff130e",
"#B c #ff140e",
".X c #ff150f",
"#1 c #ff1610",
".G c #ff1611",
"a. c #ff1914",
"#M c #ff1b15",
".h c #ff1c17",
".y c #ff1d18",
"as c #ff1f1a",
"aO c #ff201a",
"#2 c #ff201b",
".I c #ff211c",
".i c #ff2520",
".# c #ff2620",
"br c #ff2823",
"#K c #ff2924",
"aH c #ff2b26",
".5 c #ff2c27",
"#V c #ff2f2a",
"bq c #ff322d",
"bp c #ff342f",
"#o c #ff3530",
".u c #ff3732",
".V c #ff3833",
"am c #ff3a35",
".j c #ff3c37",
".s c #ff3e39",
"#z c #ff3f3a",
"af c #ff423e",
"ba c #ff4540",
"#c c #ff4944",
"#n c #ff4a45",
"ab c #ff4a46",
".D c #ff4b47",
"aU c #ff514d",
"aV c #ff524e",
"bt c #ff5450",
"#H c #ff5652",
"aW c #ff5b57",
".x c #ff5e5b",
"bw c #ff605c",
"bu c #ff6c69",
".4 c #ff6d69",
".g c #ff716d",
".v c #ff7572",
"bl c #ff7672",
"#N c #ff7875",
".w c #ff807c",
".b c #ff8380",
".c c #ff8683",
"#d c #ff8784",
"#5 c #ff8885",
".k c #ff8e8b",
"bn c #ff908e",
".F c #ff918e",
".r c #ff9390",
".W c #ff9592",
".U c #ff9896",
"#W c #ff9a98",
".d c #ff9e9c",
".e c #ffa3a1",
".l c #ffa4a2",
".q c #ffa5a2",
".p c #ffa7a5",
".m c #ffa8a6",
"QtQtQtQtQt.#.aQtQtQtQtQt.b.c.d.e.e.f.g.hQtQtQtQtQtQtQtQtQtQtQtQt",
"QtQtQtQtQtQt.i.i.#.j.k.l.m.n.n.e.o.n.p.q.r.sQtQtQtQtQtQtQtQtQtQt",
"QtQtQtQtQtQtQt.t.u.j.v.w.x.y.z.A.B.C.D.E.d.n.F.GQtQtQtQtQtQtQtQt",
"QtQtQtQtQtQt.k.l.w.H.I.J.K.L.M.N.M.O.P.Q.R.S.T.U.VQtQtQtQtQtQtQt",
"QtQtQtQtQt.T.p.W.X.Y.Z.0.1.N.N.N.N.N.N.N.2.Q.3.4.w.5QtQtQtQtQtQt",
"QtQtQtQt.W.p.c.6.7.N.8.9#.##QtQtQtQtQtQt.N.N#a#b#c.x.0QtQtQtQtQt",
"QtQtQt#d.p.c#e#f.N.N#g#h#i#j#kQtQtQtQtQtQtQt.N#l#m#n#o#pQtQtQtQt",
"QtQt#q#r.W#s#t.N.N.N.N#u#v#w#p#xQtQtQtQtQtQtQt.N.L#y#z.0.QQtQtQt",
"QtQt#A.l#B.L.N.N.NQtQt#C#D#E.0#F#GQtQtQt#H#I#I.N.N#J#B#K#LQtQtQt",
"Qt#M.W#N.K.N.N.NQtQtQtQt#O.P#P#Q.B#n.x#w#w#w#I#R#S.N#L.a#T#UQtQt",
"Qt#V#W.0#f.N.NQtQtQtQtQt#X#Y#Z#0.1#1#2#w#3.2.8.K#4#S.2.0#I#kQtQt",
"#C.s#5#k.N.NQtQtQtQtQtQtQt#C#6.h#7#G#w.N.N.N.N.N#g#8#Y#9a.a#.PQt",
"aaab.xac.NQtQtQtQtQtQtQtQt#xada.#w#w.N.N.NQtQtQt#t.N#tae#P#pacQt",
"#eaf.aag.NQtQtQtQtQtQtQtQtQtah#1aiac.N.NQtQtQtQtQtQtaj#Y.0akalQt",
"#Laman.M.NQtQtQtQtQtQtQtQtQt.3a..0#g.NQtQtQtQtQtQtQtQtao#iapaqQt",
"ar#K.0#t.NQtQtQtQtQtQtQtQtQt.3as#w.NatQtQtQtQtQtQtQtQt.N.B#xaqQt",
"au#I#Bav.NQtQtQtQtQtQtQtQtQtawa.#w.MaxQtQtQtQtQtQtQtQtayapaz.KQt",
"aA#x.aaB.NQtQtQtQtQtQtQtQtQtaC#w#w#YaDQtQtQtQtQtQtQtQtaoaE.RalQt",
"aFaGaH#L.NQtQtQtQtQtQtQtQtQtai#w#yaF#CQtQtQtQtQtQtQtQtaj#.aIaAQt",
"ataJ.XaK.NQtQtQtQtQtQtQtQt.DaC#w#waq.9QtQtQtQtQtQtQtQt.9#yaLaMQt",
"QtaNapaOaP.NQtQtQtQtQtQt.gaK#I#w#wau#XQtQtQtQtQtQtQtQtak#yaQaRQt",
"Qt.PaS.haT#uau#oaUaVaW#zaT#..RaX#w.A.9QtQtQtQtQtQtQt#e#..3aY.NQt",
"QtQtae#j.VaZ.N#JaE.V#oaw#maP#Y.Ma0awa1a1QtQtQtQtQtQt#xa2#.#kQtQt",
"QtQt#Ja3a2.ja4.N.Na5.7#l.2.Na6.Ka7a8#ba9QtQtQtQtQtb.a2a.aT#fQtQt",
"QtQtQt.Qb#asbaaq.N.N.N.N.N.N#tbb.M#K#Kb#.LQtQtQt#mbcaObdaJQtQtQt",
"QtQtQtQtbea0.#aUbfQtQtQtQtQtQtQt#b#f#K.Z#hQtQt.Rbg.#bhaT.NQtQtQt",
"QtQtQtQtQtaJaYbg#cbiQtQtQtQtQtQtQt#u#K#Ka#bjbk#B#oblaH#hQtQtQtQt",
"QtQtQtQtQtQtbm.9#jbd.saTQtQtQtQtQtQt#D#KaC#w#K#Kbnbd#lQtQtQtQtQt",
"QtQtQtQtQtQtQtaNbo.6bk#Kbpbqbr.ias#Mas.i#K#K#Kbn#y.NQtQtQtQtQtQt",
"QtQtQtQtQtQtQtQta6bs.6#x#Ga..i#K#K#K#K#K#K#K#KaD.NQtQtQtQtQtQtQt",
"QtQtQtQtQtQtQtQtQtQt.2a1adbc#obtbubv.vbwbn#K#K#KQtQtQtQtQtQtQtQt",
"QtQtQtQtQtQtQtQtQtQtQtQt.N.N#l.L.O.2ao.N.NQt#K#K.iQtQtQtQtQtQtQt"};
